<svg width="28" height="28" viewBox="0 0 28 28" fill="none" xmlns="http://www.w3.org/2000/svg">
<rect width="28" height="28" rx="3" fill="#011627"/>
<g clip-path="url(#clip0_2896_175)">
<path d="M9.75 25C11.82 25 13.5 23.2827 13.5 21.1667V17.3333H9.75C7.68 17.3333 6 19.0507 6 21.1667C6 23.2827 7.68 25 9.75 25Z" fill="#0ACF83"/>
<path d="M6 13.5C6 11.384 7.68 9.66666 9.75 9.66666H13.5V17.3333H9.75C7.68 17.3333 6 15.616 6 13.5Z" fill="#A259FF"/>
<path d="M6 5.83333C6 3.71733 7.68 2 9.75 2H13.5V9.66667H9.75C7.68 9.66667 6 7.94933 6 5.83333Z" fill="#F24E1E"/>
<path d="M13.5 2H17.25C19.32 2 21 3.71733 21 5.83333C21 7.94933 19.32 9.66667 17.25 9.66667H13.5V2Z" fill="#FF7262"/>
<path d="M21 13.5C21 15.616 19.32 17.3333 17.25 17.3333C15.18 17.3333 13.5 15.616 13.5 13.5C13.5 11.384 15.18 9.66666 17.25 9.66666C19.32 9.66666 21 11.384 21 13.5Z" fill="#1ABCFE"/>
</g>
<defs>
<clipPath id="clip0_2896_175">
<rect width="15" height="23" fill="white" transform="translate(6 2)"/>
</clipPath>
</defs>
</svg>
