<svg width="28" height="28" viewBox="0 0 28 28" fill="none" xmlns="http://www.w3.org/2000/svg">
<rect width="28" height="28" rx="3" fill="#011627"/>
<g clip-path="url(#clip0_2896_159)">
<path d="M4 4H24V24H4V4Z" fill="#F7DF1E"/>
<path d="M9.25875 20.7134L10.7892 19.7872C11.0845 20.3107 11.3531 20.7537 11.9974 20.7537C12.615 20.7537 13.0044 20.5121 13.0044 19.5724V13.182H14.8839V19.599C14.8839 21.5456 13.7428 22.4317 12.078 22.4317C10.5744 22.4317 9.70179 21.6532 9.25875 20.7134ZM15.9048 20.512L17.4351 19.626C17.838 20.2839 18.3616 20.7672 19.2878 20.7672C20.0666 20.7672 20.5632 20.3778 20.5632 19.8408C20.5632 19.1964 20.053 18.9681 19.1938 18.5924L18.7241 18.3908C17.368 17.8137 16.4686 17.0887 16.4686 15.5582C16.4686 14.1485 17.5426 13.0745 19.2208 13.0745C20.4156 13.0745 21.2748 13.4907 21.8923 14.5781L20.4289 15.518C20.1066 14.9407 19.7577 14.7125 19.2207 14.7125C18.6702 14.7125 18.3212 15.0616 18.3212 15.518C18.3212 16.0818 18.6702 16.3102 19.4757 16.6592L19.9455 16.8606C21.5432 17.5453 22.4427 18.2434 22.4427 19.814C22.4427 21.5057 21.1136 22.432 19.328 22.432C17.5828 22.432 16.4552 21.5995 15.9048 20.512Z" fill="black"/>
</g>
<defs>
<clipPath id="clip0_2896_159">
<rect width="20" height="20" fill="white" transform="translate(4 4)"/>
</clipPath>
</defs>
</svg>
