<svg width="28" height="28" viewBox="0 0 28 28" fill="none" xmlns="http://www.w3.org/2000/svg">
<rect width="28" height="28" rx="3" fill="#011627"/>
<rect x="2" y="2" width="23" height="23" rx="11.5" fill="#011627"/>
<g clip-path="url(#clip0_2896_52)">
<mask id="mask0_2896_52" style="mask-type:luminance" maskUnits="userSpaceOnUse" x="2" y="2" width="23" height="23">
<path d="M2 2H25V25H2V2Z" fill="white"/>
</mask>
<g mask="url(#mask0_2896_52)">
<path d="M12.7467 2.00587C12.6969 2.01066 12.5398 2.02695 12.3979 2.03749C9.13192 2.33266 6.07292 4.09504 4.13325 6.80424C3.06212 8.29131 2.36582 10.015 2.1035 11.8288C2.0115 12.4613 2 12.6472 2 13.504C2 14.3607 2.0115 14.5476 2.1035 15.1791C2.72833 19.4983 5.80267 23.1266 9.97046 24.4711C10.717 24.7117 11.5038 24.8755 12.3979 24.9752C12.7468 25.0135 14.2532 25.0135 14.6021 24.9752C16.146 24.8037 17.455 24.4213 18.745 23.7629C18.9433 23.6623 18.9817 23.6345 18.9548 23.6125C18.3239 22.7803 17.6993 21.9434 17.0813 21.1016L15.2422 18.6167L12.9384 15.206C12.1719 14.0652 11.3982 12.9292 10.6173 11.7981C10.6087 11.7952 10.6001 13.3104 10.5953 15.1619C10.5886 18.401 10.5857 18.5314 10.5455 18.608C10.5062 18.6975 10.4362 18.7699 10.348 18.8122C10.2762 18.8486 10.2139 18.8553 9.87367 18.8553H9.48458L9.38108 18.7901C9.31704 18.7497 9.26506 18.6927 9.23062 18.6253L9.18271 18.5247L9.1875 14.0167L9.19421 9.50674L9.26417 9.41858C9.31127 9.36346 9.36772 9.31707 9.43092 9.28154C9.52292 9.23649 9.55837 9.23266 9.94842 9.23266C10.4065 9.23266 10.4832 9.24991 10.602 9.38024C10.6355 9.41666 11.8833 11.2969 13.3764 13.5605L17.9131 20.4337L19.734 23.1917L19.8269 23.1314C20.7032 22.5488 21.4977 21.8517 22.1892 21.0585C23.6384 19.3999 24.5784 17.3585 24.8965 15.1791C24.9885 14.5466 25 14.3607 25 13.504C25 12.6472 24.9885 12.4613 24.8965 11.8288C24.2717 7.51054 21.1973 3.88133 17.0295 2.53679C16.2506 2.28912 15.4485 2.12119 14.6356 2.03558C14.419 2.01258 12.9336 1.98766 12.7477 2.00683M17.456 8.96433C17.5094 8.99124 17.557 9.02847 17.596 9.07387C17.635 9.11927 17.6646 9.17193 17.6831 9.22883C17.7004 9.28633 17.7052 10.537 17.7004 13.3545L17.6937 17.3967L16.9816 16.3042L16.2667 15.2117V12.2735C16.2667 10.3731 16.2753 9.30549 16.2887 9.25374C16.3047 9.19389 16.3326 9.13788 16.3708 9.08913C16.4091 9.04037 16.4568 8.99987 16.5111 8.97008C16.604 8.92216 16.6376 8.91833 16.9902 8.91833C17.3228 8.91833 17.3812 8.92312 17.456 8.96337" fill="white"/>
</g>
</g>
<defs>
<clipPath id="clip0_2896_52">
<rect x="2" y="2" width="23" height="23" rx="11.5" fill="white"/>
</clipPath>
</defs>
</svg>
