<svg width="28" height="28" viewBox="0 0 28 28" fill="none" xmlns="http://www.w3.org/2000/svg">
<rect width="28" height="28" rx="3" fill="#011627"/>
<path d="M14 25.4999C13.6895 25.4999 13.3996 25.4154 13.1305 25.2675L10.3768 23.5982C9.96273 23.3658 10.1698 23.2813 10.294 23.239C10.853 23.0489 10.9565 23.0066 11.5362 22.6685C11.5984 22.6262 11.6812 22.6473 11.7432 22.6896L13.8551 23.9785C13.9379 24.0208 14.0414 24.0208 14.1035 23.9785L22.3645 19.0976C22.4473 19.0553 22.4887 18.9708 22.4887 18.8651V9.12414C22.4887 9.01849 22.4473 8.93398 22.3645 8.89172L14.1035 4.03178C14.0207 3.98952 13.9172 3.98952 13.8551 4.03178L5.59414 8.8918C5.51133 8.93405 5.46992 9.0397 5.46992 9.12422V18.8651C5.46992 18.9497 5.51133 19.0553 5.59414 19.0976L7.85094 20.4287C9.0725 21.0626 9.83844 20.323 9.83844 19.5835V9.9693C9.83844 9.84253 9.94203 9.71575 10.087 9.71575H11.1429C11.2671 9.71575 11.3913 9.8214 11.3913 9.9693V19.5834C11.3913 21.2527 10.501 22.2247 8.9482 22.2247C8.47203 22.2247 8.09938 22.2247 7.04352 21.6964L4.86953 20.4287C4.33125 20.1117 4 19.5201 4 18.8862V9.14535C4 8.51147 4.33125 7.91986 4.86953 7.60284L13.1305 2.72186C13.648 2.42605 14.352 2.42605 14.8695 2.72186L23.1305 7.60284C23.6687 7.91978 24 8.51139 24 9.14535V18.8863C24 19.5201 23.6687 20.1118 23.1305 20.4287L14.8695 25.3098C14.6004 25.4366 14.2898 25.5 14 25.5M16.5466 18.8018C12.9234 18.8018 12.178 17.1114 12.178 15.6746C12.178 15.5478 12.2816 15.421 12.4265 15.421H13.503C13.6273 15.421 13.7309 15.5055 13.7309 15.6323C13.8965 16.7521 14.3727 17.3016 16.5673 17.3016C18.3064 17.3016 19.0518 16.9001 19.0518 15.9493C19.0518 15.3999 18.8448 14.9984 16.1325 14.7237C13.8758 14.4913 12.4679 13.9842 12.4679 12.1459C12.4679 10.4343 13.8757 9.4201 16.236 9.4201C18.8861 9.4201 20.1905 10.3498 20.3561 12.3783C20.3561 12.4417 20.3354 12.5051 20.294 12.5684C20.2526 12.6107 20.1905 12.6529 20.1284 12.6529H19.0518C18.9482 12.6529 18.8448 12.5684 18.824 12.4628C18.5755 11.3007 17.9338 10.9204 16.236 10.9204C14.3313 10.9204 14.1035 11.5965 14.1035 12.1036C14.1035 12.7164 14.3727 12.9065 16.9399 13.2446C19.4866 13.5826 20.6873 14.0687 20.6873 15.8859C20.6666 17.7453 19.176 18.8018 16.5466 18.8018Z" fill="#539E43"/>
</svg>
