<svg width="28" height="28" viewBox="0 0 28 28" fill="none" xmlns="http://www.w3.org/2000/svg">
<rect width="28" height="28" rx="3" fill="#011627"/>
<path d="M21.0884 10.4824C20.8542 10.4003 20.6181 10.3243 20.3803 10.2544C20.4202 10.0875 20.457 9.92271 20.4897 9.76079C21.0257 7.10184 20.6753 4.95974 19.4783 4.25446C18.3306 3.57833 16.4536 4.28334 14.558 5.96902C14.3712 6.13544 14.1885 6.30666 14.0101 6.48252C13.8907 6.36559 13.7692 6.25092 13.6457 6.13858C11.659 4.33621 9.66763 3.57657 8.4719 4.28387C7.32523 4.96211 6.9857 6.97583 7.46832 9.49578C7.51634 9.74535 7.57055 9.99364 7.63091 10.2404C7.34904 10.3222 7.07705 10.4093 6.81674 10.5021C4.48749 11.3319 3 12.6322 3 13.9811C3 15.3742 4.59689 16.7715 7.02291 17.6187C7.21959 17.6871 7.41791 17.7505 7.61768 17.8088C7.55282 18.0746 7.49522 18.3422 7.44495 18.6112C6.98484 21.0875 7.34414 23.0536 8.48771 23.7275C9.66884 24.4235 11.6512 23.7082 13.5815 21.9841C13.738 21.8439 13.8911 21.6998 14.0406 21.5518C14.2337 21.7422 14.432 21.9271 14.6353 22.1062C16.5051 23.7502 18.3517 24.414 19.4942 23.7382C20.6742 23.0402 21.0577 20.9281 20.5598 18.3584C20.5206 18.157 20.4766 17.9567 20.4279 17.7576C20.5671 17.7154 20.7037 17.672 20.8369 17.6269C23.359 16.7731 25 15.3928 25 13.9811C25 12.6273 23.4645 11.3182 21.0884 10.4824ZM20.5414 16.7154C20.421 16.7561 20.2978 16.7954 20.1719 16.8335C19.8934 15.9329 19.5177 14.9752 19.0579 13.9857C19.4966 13.0198 19.8579 12.0744 20.1285 11.1796C20.3536 11.2462 20.572 11.3163 20.7825 11.3903C22.8184 12.1065 24.0602 13.1652 24.0602 13.9811C24.0602 14.85 22.719 15.9781 20.5414 16.7154ZM19.6378 18.5449C19.858 19.6811 19.8894 20.7085 19.7435 21.5117C19.6126 22.2334 19.3491 22.7145 19.0232 22.9072C18.33 23.3173 16.8473 22.7843 15.2482 21.3783C15.0592 21.2117 14.8748 21.0399 14.6951 20.8628C15.315 20.1701 15.9345 19.3648 16.5392 18.4704C17.6028 18.374 18.6075 18.2163 19.5187 18.0011C19.5637 18.1862 19.6034 18.3674 19.6378 18.5449ZM10.5003 22.8364C9.82292 23.0807 9.28341 23.0878 8.95727 22.8956C8.26333 22.4867 7.97484 20.908 8.36834 18.7904C8.41512 18.5401 8.46868 18.2913 8.52896 18.0441C9.4301 18.2478 10.4276 18.3943 11.4936 18.4826C12.1024 19.3578 12.7398 20.1622 13.3822 20.8666C13.2457 21.0016 13.1059 21.1331 12.9631 21.2611C12.1095 22.0234 11.2541 22.5643 10.5003 22.8364ZM7.32695 16.7101C6.2542 16.3354 5.36827 15.8485 4.76103 15.3172C4.21533 14.8398 3.9399 14.3657 3.9399 13.9811C3.9399 13.1625 5.13417 12.1185 7.12612 11.4089C7.36786 11.3228 7.62086 11.2416 7.8834 11.1654C8.15874 12.0804 8.51985 13.037 8.95564 14.0044C8.51418 14.9861 8.14791 15.9581 7.86991 16.8839C7.68756 16.8305 7.50652 16.7725 7.32695 16.7101ZM8.39069 9.31129C7.97724 7.15233 8.25181 5.52374 8.94284 5.11498C9.6788 4.67963 11.3063 5.30035 13.0217 6.85668C13.1335 6.95839 13.2436 7.06217 13.3518 7.16796C12.7126 7.86929 12.081 8.66774 11.4776 9.53775C10.443 9.63575 9.45253 9.7931 8.54194 10.0039C8.48582 9.77442 8.43539 9.54341 8.39069 9.31129ZM17.8805 11.7058C17.6654 11.3262 17.4424 10.9513 17.2115 10.5815C17.9134 10.6722 18.586 10.7926 19.2175 10.9398C19.0279 11.5608 18.7916 12.21 18.5134 12.8756C18.3101 12.4814 18.0991 12.0913 17.8805 11.7058ZM14.0106 7.85436C14.444 8.33424 14.8782 8.86997 15.3052 9.45126C14.439 9.40945 13.5713 9.40928 12.705 9.45073C13.1325 8.87479 13.5703 8.33977 14.0106 7.85436ZM10.1158 11.7123C9.89995 12.0947 9.69287 12.4823 9.49473 12.8747C9.2211 12.2115 8.98692 11.5593 8.79571 10.9295C9.4234 10.786 10.0928 10.6687 10.7902 10.5797C10.5568 10.9517 10.3319 11.3294 10.1158 11.7123ZM10.8103 17.4507C10.0897 17.3685 9.41025 17.2572 8.78273 17.1176C8.97695 16.4766 9.21629 15.8106 9.49584 15.1331C9.69477 15.5258 9.90271 15.9136 10.1195 16.2962C10.3424 16.6896 10.5732 17.0749 10.8103 17.4507ZM14.0365 20.1754C13.591 19.6844 13.1467 19.1411 12.7128 18.5568C13.1341 18.5737 13.5635 18.5823 14 18.5823C14.4484 18.5823 14.8917 18.572 15.328 18.5521C14.8996 19.147 14.4671 19.691 14.0365 20.1754ZM18.5223 15.0985C18.8164 15.7834 19.0642 16.446 19.261 17.076C18.6232 17.2247 17.9345 17.3445 17.2088 17.4335C17.4414 17.0568 17.6665 16.6755 17.8842 16.2897C18.1055 15.8975 18.3183 15.5004 18.5223 15.0985ZM17.0701 15.8099C16.7368 16.4014 16.3849 16.9817 16.0147 17.5498C15.3442 17.5984 14.6722 17.6225 14 17.6221C13.3153 17.6221 12.6494 17.6003 12.0081 17.5578C11.6283 16.991 11.2696 16.4097 10.9328 15.8151C10.5976 15.2238 10.2845 14.6196 9.9942 14.0039C10.2838 13.3881 10.596 12.7836 10.9301 12.1918C11.264 11.5998 11.6197 11.0211 11.9967 10.4567C12.651 10.4061 13.3219 10.3798 13.9999 10.3798C14.6811 10.3798 15.3529 10.4064 16.007 10.4573C16.3802 11.0208 16.7337 11.5976 17.067 12.1867C17.4022 12.7772 17.7185 13.3788 18.0154 13.9903C17.7215 14.6081 17.4062 15.215 17.0701 15.8099ZM19.0089 5.08627C19.7455 5.5204 20.032 7.27105 19.5692 9.56682C19.5395 9.7134 19.5066 9.86238 19.4704 10.0138C18.5575 9.79846 17.5664 9.63838 16.5287 9.53889C15.9242 8.65931 15.2978 7.85963 14.669 7.16735C14.8338 7.00504 15.0025 6.84693 15.175 6.69318C16.7992 5.24898 18.3172 4.67875 19.0089 5.08627ZM14 11.9738C15.085 11.9738 15.9645 12.8725 15.9645 13.9811C15.9645 15.0897 15.085 15.9884 14 15.9884C12.915 15.9884 12.0355 15.0897 12.0355 13.9811C12.0355 12.8725 12.915 11.9738 14 11.9738Z" fill="#00D8FF"/>
</svg>
