<svg width="28" height="28" viewBox="0 0 28 28" fill="none" xmlns="http://www.w3.org/2000/svg">
<rect width="28" height="28" rx="3" fill="#011627"/>
<g clip-path="url(#clip0_2896_165)">
<path fill-rule="evenodd" clip-rule="evenodd" d="M4 4H24V24H4V4ZM17.3333 12C16.6261 12 15.9478 12.281 15.4477 12.781C14.9476 13.2811 14.6667 13.9594 14.6667 14.6667C14.6667 15.3739 14.9476 16.0522 15.4477 16.5523C15.9478 17.0524 16.6261 17.3333 17.3333 17.3333H18.6667C19.0203 17.3333 19.3594 17.4738 19.6095 17.7239C19.8595 17.9739 20 18.313 20 18.6667C20 19.0203 19.8595 19.3594 19.6095 19.6095C19.3594 19.8595 19.0203 20 18.6667 20H17.3333C16.9797 20 16.6406 19.8595 16.3905 19.6095C16.1405 19.3594 16 19.0203 16 18.6667H14.6667C14.6667 19.3739 14.9476 20.0522 15.4477 20.5523C15.9478 21.0524 16.6261 21.3333 17.3333 21.3333H18.6667C19.3739 21.3333 20.0522 21.0524 20.5523 20.5523C21.0524 20.0522 21.3333 19.3739 21.3333 18.6667C21.3333 17.9594 21.0524 17.2811 20.5523 16.781C20.0522 16.281 19.3739 16 18.6667 16H17.3333C16.9797 16 16.6406 15.8595 16.3905 15.6095C16.1405 15.3594 16 15.0203 16 14.6667C16 14.313 16.1405 13.9739 16.3905 13.7239C16.6406 13.4738 16.9797 13.3333 17.3333 13.3333H18.8893C19.5027 13.3333 20 13.8307 20 14.444V14.6667H21.3333V14.444C21.3333 13.0947 20.24 12 18.8893 12H17.3333ZM8 12H14.6667V13.3333H12V21.3333H10.6667V13.3333H8V12Z" fill="#3178C6"/>
</g>
<defs>
<clipPath id="clip0_2896_165">
<rect width="20" height="20" fill="white" transform="translate(4 4)"/>
</clipPath>
</defs>
</svg>
