<svg width="42" height="42" viewBox="0 0 42 42" fill="none" xmlns="http://www.w3.org/2000/svg">
<rect width="42" height="42" fill="#011627"/>
<path fill-rule="evenodd" clip-rule="evenodd" d="M12.2313 9C10.5188 9 9.2525 10.4988 9.31 12.1225C9.36375 13.685 9.29375 15.7062 8.785 17.355C8.2725 19.0075 7.41 20.055 6 20.19V21.7087C7.41 21.8425 8.27375 22.89 8.78375 24.5438C9.29375 26.1925 9.36375 28.2138 9.30875 29.775C9.2525 31.4 10.5188 32.8988 12.2313 32.8988H29.7712C31.4837 32.8988 32.75 31.4 32.6925 29.775C32.6388 28.2138 32.7088 26.1925 33.2175 24.5438C33.7288 22.89 34.59 21.8437 36 21.7087V20.19C34.59 20.055 33.7288 19.0075 33.2175 17.355C32.7088 15.705 32.6388 13.6838 32.6925 12.1225C32.75 10.4975 31.4825 9 29.7712 9H12.2313ZM26.3375 23.7113C26.3375 25.9488 24.6688 27.305 21.9 27.305H17.1863C17.0513 27.305 16.9219 27.2514 16.8265 27.156C16.7311 27.0606 16.6775 26.9312 16.6775 26.7962V15.1013C16.6778 14.9665 16.7316 14.8375 16.827 14.7423C16.9223 14.6472 17.0515 14.5937 17.1863 14.5938H21.8738C24.1825 14.5938 25.6987 15.8438 25.6987 17.765C25.6987 19.1125 24.6788 20.3187 23.38 20.5312V20.6012C25.1488 20.795 26.3375 22.02 26.3375 23.7113ZM21.3875 16.205H18.7V20.0025H20.9637C22.7137 20.0025 23.6787 19.2975 23.6787 18.0375C23.6787 16.8575 22.8488 16.205 21.3875 16.205ZM18.7 21.5087V25.6925H21.4875C23.3088 25.6925 24.275 24.9612 24.275 23.5875C24.275 22.2125 23.2825 21.5087 21.37 21.5087H18.7Z" fill="#607B96"/>
</svg>
