<svg width="42" height="42" viewBox="0 0 42 42" fill="none" xmlns="http://www.w3.org/2000/svg">
<rect width="42" height="42" fill="#011627"/>
<path d="M28.9688 6H13.0312C9.148 6 6 9.148 6 13.0312V28.9688C6 32.852 9.148 36 13.0312 36H28.9688C32.852 36 36 32.852 36 28.9688V13.0312C36 9.148 32.852 6 28.9688 6Z" fill="#011627"/>
<path d="M32.7188 27.4379C32.3776 27.5672 32.0009 27.5669 31.6599 27.4373C31.319 27.3076 31.0373 27.0575 30.8682 26.7342C29.8062 25.1443 28.6334 23.6262 27.5061 22.0754L27.0173 21.4239C25.6751 23.2222 24.3328 24.9489 23.1079 26.7408C22.9483 27.0497 22.6819 27.2901 22.3582 27.4172C22.0346 27.5443 21.6758 27.5493 21.3486 27.4315L26.3854 20.6746L21.7004 14.5691C22.0377 14.4473 22.4066 14.4457 22.7449 14.5644C23.0833 14.6831 23.3703 14.9149 23.5575 15.2207C24.6456 16.8107 25.8511 18.3288 27.0499 19.9383C28.2554 18.3418 29.4478 16.8171 30.562 15.2402C30.7224 14.9363 30.989 14.7019 31.311 14.5818C31.633 14.4616 31.9879 14.4641 32.3082 14.5887L30.4903 16.9996C29.6759 18.0746 28.8744 19.1563 28.0274 20.2053C27.9591 20.2665 27.9045 20.3413 27.8671 20.4249C27.8297 20.5086 27.8104 20.5992 27.8104 20.6908C27.8104 20.7824 27.8297 20.873 27.8671 20.9567C27.9045 21.0403 27.9591 21.1151 28.0274 21.1762C29.5847 23.2418 31.1289 25.3138 32.7188 27.4379ZM9.28125 20.5898C9.41813 19.9383 9.50273 19.228 9.69176 18.5634C10.819 14.5562 15.4126 12.888 18.5728 15.3707C20.4233 16.8238 20.886 18.8828 20.7948 21.2024H10.3695C10.2 25.3465 13.1907 27.8485 17.0155 26.5714C17.636 26.3495 18.1914 25.9766 18.6316 25.4863C19.0719 24.9959 19.3831 24.4037 19.5371 23.763C19.7392 23.1115 20.065 23.0007 20.6839 23.1896C20.582 23.9829 20.3015 24.7427 19.8636 25.4119C19.4258 26.0812 18.8419 26.6424 18.1559 27.0535C17.0224 27.6735 15.7219 27.9191 14.4404 27.7553C13.1589 27.5914 11.9621 27.0265 11.021 26.1414C10.09 25.0945 9.52709 23.7719 9.41812 22.3752C9.41812 22.1537 9.3334 21.9321 9.28781 21.7236C9.2835 21.3457 9.28131 20.9678 9.28125 20.5898ZM10.3825 20.3096H19.8109C19.7522 17.3059 17.8561 15.1752 15.328 15.1557C12.5132 15.1166 10.4998 17.2016 10.3759 20.2966L10.3825 20.3096Z" fill="#607B96"/>
</svg>
