<svg width="42" height="42" viewBox="0 0 42 42" fill="none" xmlns="http://www.w3.org/2000/svg">
<rect width="42" height="42" fill="#011627"/>
<path d="M21.0013 21.0009C21.0013 14.3363 31.0016 14.3363 31.0016 21.0009C31.0016 27.6656 21.0013 27.6656 21.0013 21.0009ZM11.0009 31.0013C11.0006 30.3446 11.1296 29.6943 11.3808 29.0875C11.6319 28.4808 12.0002 27.9295 12.4645 27.4651C12.9288 27.0008 13.4801 26.6325 14.0869 26.3814C14.6936 26.1303 15.344 26.0012 16.0006 26.0016H21.0003V31.0013C21.0003 37.6659 11 37.6659 11 31.0013H11.0009ZM21.0013 6.00094V16.0013H26.0009C32.6656 16.0013 32.6656 6.00094 26.0009 6.00094H21.0013ZM11.0009 11.0006C11.0006 11.6573 11.1296 12.3076 11.3808 12.9144C11.6319 13.5211 12.0002 14.0724 12.4645 14.5368C12.9288 15.0011 13.4801 15.3694 14.0869 15.6205C14.6936 15.8716 15.344 16.0007 16.0006 16.0003H21.0003V6H16.0006C15.344 5.99963 14.6936 6.1287 14.0869 6.37983C13.4801 6.63095 12.9288 6.99921 12.4645 7.46355C12.0002 7.92789 11.6319 8.4792 11.3808 9.08595C11.1296 9.69271 11.0006 10.343 11.0009 10.9997V11.0006ZM11.0009 21.0009C11.0006 21.6576 11.1296 22.3079 11.3808 22.9147C11.6319 23.5214 12.0002 24.0727 12.4645 24.5371C12.9288 25.0014 13.4801 25.3697 14.0869 25.6208C14.6936 25.8719 15.344 26.0019 16.0006 26.0016H21.0003V16.0003H16.0006C15.344 15.9999 14.6936 16.129 14.0869 16.3801C13.4801 16.6313 12.9288 16.9995 12.4645 17.4639C12.0002 17.9282 11.6319 18.4795 11.3808 19.0863C11.1296 19.693 11.0006 20.3433 11.0009 21V21.0009Z" fill="#607B96"/>
</svg>
