<svg width="35" height="35" viewBox="0 0 42 42" fill="none" xmlns="http://www.w3.org/2000/svg">
<rect width="42" height="42" fill="#011627"/>
<g clip-path="url(#clip0_2876_1086)">
<path fill-rule="evenodd" clip-rule="evenodd" d="M36 6H6V36H36V6ZM22 22C22 20.9391 22.4214 19.9217 23.1716 19.1716C23.9217 18.4214 24.9391 18 26 18H28.334C30.358 18 32 19.64 32 21.666V22H30V21.666C30 21.4472 29.9569 21.2306 29.8732 21.0284C29.7895 20.8263 29.6667 20.6427 29.512 20.488C29.3573 20.3333 29.1737 20.2105 28.9715 20.1268C28.7694 20.0431 28.5528 20 28.334 20H26C25.4696 20 24.9609 20.2107 24.5858 20.5858C24.2107 20.9609 24 21.4696 24 22C24 22.5304 24.2107 23.0391 24.5858 23.4142C24.9609 23.7893 25.4696 24 26 24H28C29.0609 24 30.0783 24.4214 30.8284 25.1716C31.5786 25.9217 32 26.9391 32 28C32 29.0609 31.5786 30.0783 30.8284 30.8284C30.0783 31.5786 29.0609 32 28 32H26C24.9391 32 23.9217 31.5786 23.1716 30.8284C22.4214 30.0783 22 29.0609 22 28H24C24 28.5304 24.2107 29.0391 24.5858 29.4142C24.9609 29.7893 25.4696 30 26 30H28C28.5304 30 29.0391 29.7893 29.4142 29.4142C29.7893 29.0391 30 28.5304 30 28C30 27.4696 29.7893 26.9609 29.4142 26.5858C29.0391 26.2107 28.5304 26 28 26H26C24.9391 26 23.9217 25.5786 23.1716 24.8284C22.4214 24.0783 22 23.0609 22 22ZM18 18V28C18 28.5304 17.7893 29.0391 17.4142 29.4142C17.0391 29.7893 16.5304 30 16 30C15.4696 30 14.9609 29.7893 14.5858 29.4142C14.2107 29.0391 14 28.5304 14 28H12C12 29.0609 12.4214 30.0783 13.1716 30.8284C13.9217 31.5786 14.9391 32 16 32C17.0609 32 18.0783 31.5786 18.8284 30.8284C19.5786 30.0783 20 29.0609 20 28V18H18Z" fill="#607B96"/>
</g>
<defs>
<clipPath id="clip0_2876_1086">
<rect width="30" height="30" fill="white" transform="translate(6 6)"/>
</clipPath>
</defs>
</svg>
