<svg width="42" height="42" viewBox="0 0 42 42" fill="none" xmlns="http://www.w3.org/2000/svg">
<rect width="42" height="42" fill="#011627"/>
<g clip-path="url(#clip0_2876_1083)">
<path fill-rule="evenodd" clip-rule="evenodd" d="M25.407 14.0227C24.7967 12.1223 23.8177 10.4405 22.4382 8.99321C22.0894 8.62711 21.7018 8.29172 21.4585 7.83633C21.3048 7.54805 21.1583 7.25579 21.0085 6.96563L20.9133 6.72633L20.8869 6.82055C20.8744 7.29399 20.6063 7.61485 20.2726 7.91461C19.8966 8.25165 19.5469 8.61774 19.186 8.97141L18.076 10.4313L17.1786 12.0818L16.5783 13.7025L16.5603 13.7276C16.2301 14.8125 16.0672 15.9281 15.9873 17.0545C15.957 17.4781 15.9917 17.9074 16.0154 18.3331C16.0494 18.9415 16.1551 19.5394 16.3135 20.1284C16.8894 22.2673 18.0582 24.0413 19.6564 25.5488C19.9531 25.8288 20.274 26.0836 20.5836 26.3498L20.7207 26.8205L20.8482 27.5508L20.9091 28.3132C20.9084 28.4679 20.9021 28.6233 20.9112 28.7775C20.9138 28.8171 20.9654 28.8537 20.9944 28.8916L21.2532 28.9826L21.5225 29.0873L21.4763 28.4098L21.4742 27.7423L21.5673 26.7256L21.6348 26.5043L21.8281 26.1619C22.0667 25.9702 22.3224 25.7958 22.5397 25.5823C22.9327 25.1963 23.3251 24.8048 23.6769 24.3818C24.1345 23.8334 24.5255 23.2327 24.8415 22.5921C25.0522 22.1625 25.2509 21.7242 25.4152 21.2754C25.5601 20.8798 25.6498 20.4638 25.764 20.0566L25.794 19.9688C26.0295 18.87 26.0691 17.76 25.9826 16.643C25.913 15.7427 25.7014 14.8739 25.407 14.0227ZM20.743 25.8059C20.779 25.6252 20.8238 25.4454 20.8564 25.264C20.8238 25.4454 20.7793 25.6252 20.743 25.8059ZM30.9549 30.1322C30.7613 29.7612 30.4773 29.4795 30.1018 29.2945C29.7873 29.1398 29.449 29.0719 29.1012 29.062C28.8406 29.0545 28.579 29.0679 28.318 29.0712C28.0862 29.074 27.8541 29.078 27.6223 29.0759C27.3498 29.0731 27.0772 29.0648 26.8046 29.0571C26.7594 29.0557 26.7273 29.0649 26.7062 29.1108C26.6731 29.1823 26.634 29.2512 26.5934 29.3295L26.6389 29.344C26.7741 29.3679 26.9101 29.3883 27.0446 29.4152C27.2176 29.4497 27.2954 29.5491 27.3033 29.6948C27.3148 29.9027 27.32 30.1106 27.319 30.3188C27.3155 31.1423 27.3097 31.9659 27.3036 32.7893C27.3031 32.8437 27.3022 32.9004 27.2874 32.9515C27.2703 33.0106 27.2518 33.087 27.2077 33.116C27.1285 33.167 27.0395 33.2009 26.9464 33.2156C26.8149 33.2372 26.7929 33.2431 26.7519 33.3724L26.734 33.4371C26.7144 33.5077 26.7249 33.5215 26.7985 33.5222C27.2208 33.5269 27.643 33.536 28.0651 33.5346C28.4501 33.5332 28.8352 33.5566 29.2189 33.4842C29.5815 33.416 29.9199 33.2965 30.2288 33.0942C30.6296 32.8315 30.9179 32.4804 31.07 32.0222C31.1928 31.6521 31.2202 31.2745 31.1785 30.8876C31.1526 30.6239 31.0767 30.3675 30.9549 30.1322ZM30.215 32.3965C29.989 32.817 29.652 33.0977 29.1704 33.1718C28.8687 33.218 28.5666 33.2046 28.279 33.0905C28.0969 33.0183 28.0292 32.861 28.0236 32.6752C28.0184 32.493 28.0158 32.3108 28.0158 32.1286C28.0149 31.4878 28.0149 30.8471 28.0158 30.2065C28.0163 30.0047 28.0198 29.8024 28.0231 29.6004C28.0255 29.4584 28.0552 29.4108 28.1937 29.3993C28.8022 29.3482 29.3827 29.4138 29.8648 29.842C30.163 30.1069 30.3326 30.4446 30.4032 30.8325C30.4325 30.9942 30.4414 31.1597 30.4597 31.3238C30.4449 31.6983 30.3943 32.0627 30.215 32.3965ZM35.3218 31.7025C35.2018 31.4105 34.9744 31.2274 34.6887 31.1102C34.5912 31.0702 34.4907 31.0371 34.3855 30.9982L34.4223 30.9748C34.5359 30.9019 34.6625 30.8431 34.7605 30.7533C34.9986 30.5351 35.0975 30.2606 35.0511 29.9346C35.007 29.6245 34.8523 29.397 34.576 29.2493C34.3252 29.1157 34.0548 29.067 33.7749 29.0672C33.2907 29.0677 32.8062 29.0749 32.322 29.0759C32.1551 29.0761 31.9883 29.0637 31.8214 29.0613C31.789 29.0609 31.741 29.0691 31.7272 29.0906C31.689 29.1492 31.6637 29.2167 31.6365 29.2819C31.6208 29.3198 31.6362 29.3407 31.6796 29.3463C31.7961 29.3623 31.9123 29.3822 32.029 29.3995C32.1903 29.4237 32.2683 29.5076 32.2782 29.67L32.2803 29.7663C32.2805 30.2714 32.2822 30.7765 32.2801 31.2816C32.2771 31.786 32.2723 32.2903 32.2658 32.7947C32.2651 32.8582 32.2564 32.922 32.2473 32.985C32.2334 33.0802 32.1826 33.1458 32.0851 33.1664L31.8092 33.2208C31.7766 33.2273 31.7295 33.2264 31.7162 33.2466C31.6655 33.3223 31.6248 33.405 31.6304 33.5048L31.6587 33.5126L32.5852 33.5353L32.7711 33.5346C33.0917 33.5309 33.4128 33.5372 33.733 33.5208C34.0796 33.5034 34.4051 33.4006 34.7061 33.2236C35.0265 33.0349 35.273 32.7863 35.3607 32.4122C35.4169 32.1734 35.4172 31.9331 35.3218 31.7025ZM32.968 29.5507C32.9694 29.4492 33.0141 29.4052 33.1149 29.4026C33.3631 29.3958 33.6097 29.3972 33.8492 29.4827C34.159 29.5934 34.3496 29.8606 34.3461 30.187C34.3444 30.3124 34.3463 30.4366 34.3001 30.5571C34.209 30.7943 34.0341 30.9195 33.7862 30.9438C33.6568 30.957 33.5262 30.9584 33.4109 30.9645L33.0261 30.9476C32.975 30.9457 32.9527 30.9232 32.953 30.8707L32.968 29.5507ZM34.5631 32.7134C34.4391 32.9831 34.2132 33.1249 33.9303 33.1741C33.7048 33.213 33.4737 33.2028 33.2525 33.1444C33.087 33.102 33.0195 32.9691 32.9865 32.8216C32.9642 32.723 32.968 32.6056 32.9661 32.5029C32.963 32.3445 32.9654 32.0156 32.9654 32.0156H32.9621C32.9621 31.7813 32.9628 31.5783 32.9614 31.3535C32.9612 31.305 32.9694 31.2809 33.0287 31.2827C33.2391 31.2891 33.4503 31.2926 33.6608 31.3008C33.849 31.3081 34.0252 31.3638 34.1909 31.4531C34.4431 31.5891 34.595 31.7972 34.6367 32.0831C34.6686 32.2999 34.655 32.5132 34.5631 32.7134ZM11.4568 32.966L11.4612 31.6917C11.4619 31.5 11.4376 31.312 11.3748 31.1302C11.2015 30.6293 10.7239 30.4013 10.2265 30.581C10.0004 30.6628 9.79764 30.7868 9.60405 30.9274C9.49132 31.0095 9.49132 31.0095 9.40975 30.8925C9.17889 30.5616 8.84913 30.4484 8.46522 30.5705C8.21702 30.6492 7.99999 30.784 7.79444 30.9406C7.77522 30.9551 7.73655 30.9713 7.72507 30.9626C7.70585 30.9483 7.69249 30.9143 7.69296 30.8888L7.70702 30.6623C7.70819 30.6148 7.69905 30.567 7.69436 30.517C7.60155 30.5491 7.52749 30.5813 7.44991 30.6C7.21014 30.6586 6.96874 30.7125 6.72757 30.7676C6.66921 30.7809 6.60757 30.7985 6.60194 30.8656C6.59608 30.9314 6.6596 30.9424 6.70882 30.9621C6.81241 31.0041 6.91538 31.0478 7.01772 31.0931C7.10374 31.1311 7.13585 31.1998 7.13538 31.2921C7.13374 31.687 7.13632 32.0815 7.13397 32.4764C7.13303 32.637 7.12553 32.7973 7.11827 32.9578C7.11171 33.1001 7.06319 33.1596 6.92538 33.1955C6.85225 33.2147 6.77796 33.2276 6.70436 33.2449C6.68819 33.2487 6.66053 33.259 6.6603 33.267C6.65725 33.3366 6.6535 33.4078 6.66522 33.4756C6.66757 33.4877 6.74116 33.4877 6.78194 33.4924L6.80936 33.4908C7.09342 33.4863 7.37757 33.4824 7.66178 33.4791C7.81249 33.4774 7.96296 33.4788 8.12655 33.4788L8.14413 33.2515C8.05038 33.2344 7.96671 33.2215 7.88421 33.2034C7.75553 33.1753 7.70069 33.1071 7.69741 32.9773L7.69507 32.7914C7.69366 32.3093 7.69178 31.8274 7.69178 31.3453C7.69178 31.2752 7.72085 31.2197 7.78249 31.1777C7.91303 31.0896 8.05085 31.0195 8.20342 30.9804C8.52499 30.8981 8.80389 31.0125 8.92764 31.286C8.96678 31.3723 8.99749 31.4677 9.00616 31.5614C9.05163 32.0447 9.03194 32.5284 9.00452 33.0117C8.99866 33.116 8.94967 33.1685 8.84678 33.1941L8.60491 33.2452C8.58546 33.2501 8.5571 33.237 8.55569 33.2531C8.5503 33.3199 8.55335 33.4223 8.55335 33.4223H8.611L9.34741 33.4465C9.54921 33.446 9.75124 33.4704 9.9528 33.4756C9.98889 33.4763 10.021 33.4816 10.0231 33.4399C10.0252 33.3752 10.0244 33.3103 10.0205 33.2456L9.9821 33.2388L9.77467 33.1922C9.63475 33.1591 9.58647 33.1059 9.586 32.9644C9.58436 32.6154 9.58905 32.2666 9.586 31.9179C9.58424 31.7184 9.57681 31.5191 9.56374 31.32C9.56022 31.267 9.56842 31.2323 9.61061 31.2026C9.73286 31.1131 9.87044 31.0468 10.0165 31.0069C10.4701 30.8873 10.8413 31.136 10.8648 31.6036C10.8877 32.0545 10.8781 32.5071 10.8746 32.959C10.8734 33.1163 10.8214 33.1638 10.6665 33.206L10.613 33.2198C10.4544 33.2578 10.4558 33.2578 10.4651 33.4263C10.4682 33.4791 10.4827 33.4927 10.539 33.4913C10.8622 33.484 11.1854 33.4821 11.5086 33.4793C11.6408 33.4781 11.773 33.4793 11.9169 33.4793L11.9462 33.2599C11.8198 33.2264 11.7033 33.2016 11.5908 33.1648C11.4915 33.131 11.4563 33.071 11.4568 32.966ZM22.587 31.0345C22.7201 30.911 22.7211 30.7479 22.6838 30.5667C22.5783 30.6771 22.4602 30.728 22.3255 30.7376C22.1448 30.7505 21.9673 30.7348 21.799 30.6628C21.3439 30.4673 20.8958 30.4812 20.449 30.6956C20.0733 30.8756 19.8423 31.1562 19.819 31.5816C19.8043 31.8541 19.8554 32.1122 20.0373 32.329C20.1462 32.4588 20.2862 32.543 20.4439 32.6011C20.5119 32.6262 20.517 32.6585 20.4601 32.7019C20.418 32.7336 20.3744 32.7634 20.3295 32.7909C20.2343 32.8508 20.1385 32.9097 20.0422 32.9677C19.9857 33.0019 19.9665 33.0455 19.985 33.1123C20.0391 33.3087 20.1786 33.4221 20.353 33.5048L20.4165 33.5491L20.3609 33.6047C20.1901 33.7432 20.0124 33.874 19.8488 34.0209C19.7115 34.1445 19.6672 34.3099 19.7087 34.4925C19.7923 34.857 20.034 35.0824 20.3769 35.186C20.9762 35.3674 21.5389 35.2634 22.0519 34.9083C22.3562 34.6976 22.5744 34.4234 22.6407 34.046C22.715 33.622 22.4794 33.2541 22.0578 33.1781C21.7789 33.1275 21.4934 33.113 21.2112 33.0806C21.0795 33.0656 20.9459 33.0567 20.8177 33.0265C20.7087 33.0007 20.6546 32.9119 20.6647 32.8252C20.6748 32.7399 20.7655 32.6604 20.8693 32.6522C21.0783 32.6353 21.2832 32.6027 21.4758 32.5146C21.9863 32.2812 22.2233 31.8724 22.164 31.3221C22.1562 31.2481 22.1394 31.1749 22.1241 31.0887C22.2875 31.1161 22.4546 31.1576 22.587 31.0345ZM21.038 33.6166C21.2457 33.6227 21.4819 33.6356 21.7102 33.7024C21.9111 33.761 22.0763 33.8637 22.1251 34.088C22.1839 34.3589 22.0536 34.6284 21.7913 34.7733C21.5457 34.9088 21.279 34.92 21.0085 34.8921C20.7769 34.8682 20.5686 34.7881 20.4017 34.617C20.1819 34.3917 20.1807 34.08 20.4008 33.8555C20.5974 33.6548 20.7026 33.6134 21.038 33.6166ZM21.5576 31.9849C21.4367 32.3719 21.0847 32.4253 20.8088 32.3016C20.5737 32.1963 20.4713 31.9891 20.4176 31.7527C20.3968 31.6617 20.3919 31.5673 20.3797 31.4742C20.3846 31.3409 20.4066 31.2129 20.4641 31.0929C20.6401 30.7233 21.0725 30.7453 21.3118 30.9127C21.4144 30.9844 21.4859 31.0819 21.5307 31.1974C21.6303 31.4489 21.6398 31.7272 21.5576 31.9849ZM19.3615 33.2184C19.2778 33.2056 19.195 33.1871 19.1138 33.1631C18.9713 33.1195 18.954 33.0928 18.9523 32.9421C18.9481 32.5221 18.9453 32.1021 18.9406 31.6824C18.9383 31.4934 18.9158 31.3071 18.8579 31.1266C18.7055 30.6509 18.2389 30.3954 17.772 30.5358C17.5133 30.6138 17.2911 30.7589 17.0841 30.9293L17.0087 30.9872L17.0089 30.9096C17.0138 30.8203 17.0234 30.731 17.0227 30.6417C17.0223 30.5951 17.0044 30.5482 16.9958 30.5072C16.8193 30.5604 16.6611 30.6138 16.4996 30.6546C16.3376 30.6954 16.1724 30.7231 16.0086 30.7563C15.9273 30.7727 15.8675 30.822 15.8689 30.878C15.871 30.957 15.9364 30.9722 15.9936 30.9959C16.0972 31.0383 16.2005 31.0812 16.303 31.1266C16.3761 31.1592 16.4058 31.2197 16.4051 31.2982C16.4 31.8441 16.3967 32.3902 16.3887 32.9363C16.3864 33.1088 16.3428 33.1542 16.1731 33.1922L16.0991 33.207C15.942 33.2339 15.9376 33.2402 15.9483 33.4059L15.9493 33.4334C15.9474 33.4971 15.9753 33.5177 16.0409 33.517C16.4581 33.5119 16.8754 33.51 17.2927 33.5114C17.4715 33.5121 17.4908 33.4981 17.487 33.3143L17.4786 33.2353C17.3764 33.2182 17.2787 33.2058 17.183 33.1847C17.083 33.1624 17.0471 33.1214 17.0377 33.0197C17.0291 32.9266 17.0262 32.8322 17.0253 32.7384C17.0206 32.3092 17.0171 31.8802 17.0148 31.4513C17.0143 31.3432 17.0342 31.2429 17.1336 31.1733C17.2798 31.0688 17.4523 31.0069 17.6316 30.9947C18.0038 30.9691 18.2867 31.1897 18.3069 31.5607C18.3317 32.0184 18.3242 32.4778 18.3301 32.9365C18.3305 32.9707 18.3244 33.0052 18.3198 33.0391C18.3108 33.1062 18.278 33.1566 18.2101 33.1739C18.1437 33.1913 18.0765 33.2067 18.0087 33.217C17.9077 33.232 17.9056 33.2313 17.8979 33.3333L17.9005 33.402C17.9124 33.5206 17.9126 33.517 18.0326 33.5159C18.4362 33.5124 18.8397 33.5108 19.243 33.5109C19.4117 33.5114 19.4237 33.5034 19.4251 33.3295L19.4246 33.2883C19.4272 33.2438 19.4073 33.2257 19.3615 33.2184ZM24.9987 30.5646C24.5757 30.4613 24.1744 30.5381 23.7933 30.7352C23.423 30.9267 23.1755 31.2227 23.0813 31.6315C22.9862 32.0447 23.0316 32.4478 23.2142 32.8315C23.333 33.0806 23.5158 33.2733 23.7648 33.3984C24.3474 33.6919 25.0601 33.5588 25.5172 33.1662C25.8779 32.8566 26.0103 32.4443 26.0183 31.9341C26.0133 31.883 26.0084 31.7845 25.9948 31.687C25.9182 31.1316 25.5336 30.6954 24.9987 30.5646ZM25.3191 32.7103C25.2069 33.1523 24.8246 33.3488 24.3933 33.1969C24.1733 33.1195 24.0087 32.9716 23.8981 32.7717C23.6436 32.3123 23.5946 31.8239 23.7394 31.3228C23.836 30.9891 24.1107 30.8065 24.4374 30.8295C24.7294 30.8499 24.954 30.99 25.1187 31.2277C25.2924 31.4784 25.3594 31.7637 25.3773 32.0632C25.3803 32.1113 25.3777 32.1593 25.3777 32.2076L25.3983 32.2099C25.3726 32.377 25.3604 32.5474 25.3191 32.7103ZM14.3588 30.5573C13.9137 30.4556 13.4968 30.5562 13.1105 30.7823C12.7765 30.9778 12.5607 31.2698 12.478 31.6514C12.4004 32.0079 12.432 32.3583 12.5583 32.6998C12.6352 32.9079 12.7517 33.0909 12.9226 33.2337C13.2823 33.5339 13.7028 33.6098 14.1502 33.5262C14.529 33.4552 14.8618 33.2869 15.1037 32.9721C15.3301 32.6777 15.4163 32.3398 15.4252 31.9734C15.4119 31.8574 15.4086 31.7393 15.384 31.6261C15.2616 31.061 14.9312 30.6879 14.3588 30.5573ZM14.7219 32.7089C14.6133 33.1486 14.225 33.3499 13.7968 33.1981C13.5219 33.1003 13.3428 32.899 13.2296 32.6409C13.0482 32.2263 13.0112 31.7948 13.1286 31.3575C13.2186 31.0231 13.4898 30.7767 13.9048 30.8358C14.1596 30.8719 14.3583 31.002 14.5065 31.2089C14.7066 31.4881 14.7725 31.8077 14.7816 32.1436V32.2123L14.7985 32.2148C14.7739 32.3798 14.7617 32.5477 14.7219 32.7089Z" fill="#607B96"/>
</g>
<defs>
<clipPath id="clip0_2876_1083">
<rect width="30" height="30" fill="white" transform="translate(6 6)"/>
</clipPath>
</defs>
</svg>
