<svg width="42" height="42" viewBox="0 0 42 42" fill="none" xmlns="http://www.w3.org/2000/svg">
<rect width="42" height="42" fill="#011627"/>
<g clip-path="url(#clip0_2876_1066)">
<path d="M26.5079 13.095C26.3616 13.095 26.2641 13.1147 26.1657 13.139V13.154H26.1807C26.2491 13.2806 26.3616 13.379 26.4488 13.4962C26.5172 13.6284 26.5754 13.7644 26.6391 13.8965L26.6588 13.8769C26.776 13.7934 26.835 13.6622 26.835 13.4615C26.7863 13.4025 26.776 13.3397 26.7329 13.2853C26.6841 13.2019 26.5763 13.1587 26.5079 13.095ZM13.2122 29.5884H12.0554C12.0206 27.747 11.9083 25.9079 11.7188 24.0759H11.7094L9.94691 29.5884H9.06285L7.31441 24.0759H7.29941C7.16355 25.9106 7.08226 27.7489 7.05566 29.5884H6.00098C6.05812 27.2767 6.22926 24.9692 6.51379 22.6744H7.9491L9.61879 27.7528H9.62816L11.3129 22.6744H12.6797C12.9835 25.1944 13.1625 27.499 13.2169 29.5884H13.2122ZM18.2316 24.4865C17.7629 27.045 17.1375 28.9059 16.3716 30.0628C15.7666 30.9565 15.1057 31.404 14.3888 31.4053C14.1994 31.4053 13.9635 31.3465 13.681 31.229V30.614C13.8225 30.6337 13.9838 30.6478 14.1647 30.6478C14.5013 30.6478 14.7704 30.5503 14.9757 30.3694C15.2194 30.1444 15.3416 29.8922 15.3422 29.6128C15.3422 29.4178 15.2494 29.0269 15.0544 28.4315L13.7897 24.4865H14.9279L15.8363 27.4359C16.0416 28.11 16.1297 28.574 16.0904 28.8422C16.5929 27.5137 16.9397 26.0587 17.1357 24.4865H18.2316ZM33.6413 29.5884H30.3507V22.6744H31.4588V28.739H33.6413V29.5884ZM29.491 29.7553L28.2216 29.13C28.3341 29.0381 28.44 28.934 28.5394 28.8178C29.0813 28.1878 29.3504 27.2456 29.3504 26.0053C29.3504 23.7159 28.4519 22.5719 26.655 22.5731C25.775 22.5719 25.0882 22.8615 24.5944 23.4422C24.0572 24.0769 23.7835 25.0144 23.7835 26.25C23.7835 27.4659 24.0225 28.3547 24.5016 28.9256C24.9413 29.4337 25.6004 29.6925 26.4844 29.6925C26.8125 29.6931 27.1138 29.6525 27.3882 29.5706L29.0438 30.5372L29.4975 29.7562L29.491 29.7553ZM25.3754 28.2019C25.0922 27.7528 24.9554 27.03 24.9554 26.0334C24.9547 24.2915 25.4838 23.4209 26.5425 23.4215C27.0947 23.4215 27.5044 23.6315 27.7632 24.0469C28.0416 24.5006 28.1832 25.214 28.1832 26.2003C28.1832 27.9534 27.6507 28.8375 26.596 28.8375C26.0391 28.8375 25.6341 28.6275 25.3707 28.2122L25.3754 28.2019ZM23.3044 27.675C23.3044 28.2609 23.0897 28.7447 22.6547 29.115C22.2254 29.4909 21.6535 29.6812 20.926 29.6812C20.2472 29.6812 19.5975 29.4665 18.9582 29.0362L19.2563 28.4409C19.8029 28.7147 20.296 28.8515 20.746 28.8515C21.1622 28.8509 21.4879 28.7597 21.7229 28.5778C21.9572 28.3922 22.0988 28.1334 22.0988 27.8062C22.0988 27.3956 21.811 27.044 21.2879 26.7515C20.8041 26.4834 19.8329 25.9312 19.8329 25.9312C19.305 25.5459 19.0463 25.1353 19.0463 24.4565C19.0463 23.8959 19.2416 23.445 19.6322 23.1037C20.0279 22.7522 20.5304 22.5815 21.1557 22.5815C21.7778 22.5761 22.3877 22.7545 22.9088 23.0944L22.6407 23.6897C22.222 23.5046 21.77 23.4067 21.3122 23.4019C20.956 23.4031 20.6825 23.4894 20.4919 23.6606C20.206 23.9175 20.1844 24.0459 20.1844 24.315C20.1844 24.7256 20.4779 25.0772 21.0141 25.379C21.5072 25.6472 22.4982 26.2144 22.4982 26.2144C23.04 26.595 23.3091 27.0056 23.3091 27.674L23.3044 27.675ZM35.0288 20.3559C34.3594 20.3409 33.8419 20.4094 33.4079 20.595C33.286 20.6437 33.0854 20.6437 33.0657 20.8003C33.1341 20.8687 33.1435 20.9765 33.2025 21.0684C33.3047 21.2344 33.4763 21.4594 33.6375 21.5765C33.8138 21.7134 33.9891 21.8503 34.17 21.9675C34.4972 22.1681 34.8638 22.2853 35.1854 22.485C35.3663 22.6022 35.5519 22.7531 35.7319 22.8759C35.8247 22.9397 35.8829 23.0522 36 23.0906V23.0662C35.941 22.9931 35.9269 22.8853 35.8679 22.7981C35.7844 22.7147 35.7019 22.6415 35.6185 22.559C35.3741 22.2343 35.081 21.9494 34.7494 21.7144C34.4813 21.5334 33.8954 21.2794 33.7875 20.9719L33.7725 20.9522C33.9535 20.9372 34.1682 20.8687 34.3435 20.82C34.6266 20.7469 34.89 20.7609 35.1835 20.6878C35.3181 20.653 35.4516 20.6139 35.5838 20.5706V20.4975C35.4329 20.3465 35.3204 20.1412 35.1638 19.9997C34.7315 19.6232 34.2711 19.2803 33.7866 18.974C33.5232 18.8034 33.1913 18.6956 32.9129 18.554C32.8154 18.5053 32.6447 18.4809 32.5904 18.3975C32.4394 18.2119 32.3513 17.9728 32.2435 17.7525C31.9984 17.2758 31.7704 16.7905 31.56 16.2975C31.4091 15.9703 31.321 15.6478 31.1354 15.345C30.2757 13.9237 29.3382 13.065 27.9029 12.2203C27.5954 12.044 27.2241 11.9709 26.8332 11.8781C26.6232 11.8687 26.4179 11.8537 26.2079 11.8444C26.071 11.7853 25.9397 11.6297 25.8225 11.5509C25.3444 11.2481 24.1135 10.5984 23.7666 11.4581C23.5416 12.0047 24.0985 12.5372 24.2944 12.8109C24.436 13.0059 24.6169 13.2215 24.7191 13.4362C24.7782 13.5825 24.7922 13.7344 24.8513 13.8853C24.9835 14.2519 25.11 14.6615 25.2863 15.0037C25.3791 15.18 25.4766 15.3647 25.5938 15.5212C25.6622 15.614 25.7794 15.6534 25.8038 15.8044C25.6866 15.975 25.6772 16.2244 25.6135 16.4297C25.3107 17.3765 25.4279 18.5437 25.8525 19.2422C25.9894 19.4522 26.3063 19.9115 26.7319 19.7353C27.1079 19.5844 27.0254 19.11 27.1322 18.69C27.1566 18.5878 27.1416 18.524 27.1913 18.4556V18.4753C27.3132 18.7097 27.4304 18.9347 27.5382 19.169C27.7922 19.5797 28.246 20.0044 28.6219 20.2875C28.8225 20.4384 28.9782 20.6981 29.2275 20.79V20.7656H29.2079C29.1544 20.6925 29.086 20.6578 29.0175 20.5997C28.8592 20.4428 28.7123 20.2749 28.5779 20.0972C28.231 19.6284 27.9188 19.1109 27.645 18.5784C27.5133 18.3153 27.3929 18.0466 27.2841 17.7731C27.2354 17.6756 27.2354 17.5237 27.1519 17.475C27.0254 17.6559 26.8397 17.8115 26.7516 18.0412C26.5904 18.3975 26.5754 18.8419 26.5125 19.3012C26.4835 19.3106 26.4975 19.3012 26.4835 19.3209C26.2154 19.2525 26.1225 18.9787 26.0241 18.7444C25.77 18.149 25.7307 17.1965 25.9463 16.5131C26.0054 16.3369 26.2538 15.7856 26.1563 15.6197C26.1029 15.4584 25.9369 15.3656 25.8488 15.239C25.7363 15.0825 25.6238 14.8828 25.546 14.7065C25.3454 14.2378 25.2479 13.7203 25.0285 13.2515C24.931 13.0369 24.7547 12.8119 24.6132 12.6122C24.4519 12.3872 24.2766 12.2269 24.1538 11.9625C24.1097 11.8697 24.0516 11.7187 24.12 11.6203C24.135 11.5519 24.1688 11.5275 24.2372 11.5078C24.345 11.415 24.6572 11.5322 24.765 11.5856C25.0725 11.7075 25.3313 11.8247 25.59 12.0009C25.7072 12.0844 25.8338 12.24 25.9857 12.284H26.1619C26.43 12.3431 26.7282 12.299 26.9775 12.3769C27.4219 12.5184 27.8222 12.7237 28.1832 12.9478C29.287 13.6563 30.1847 14.6432 30.7857 15.809C30.8879 15.9994 30.9319 16.1756 31.0247 16.3753C31.1954 16.7906 31.4157 17.205 31.591 17.6006C31.7663 17.9962 31.9332 18.3965 32.1863 18.7237C32.3129 18.9 32.8116 18.9919 33.0404 19.08C33.2063 19.1578 33.465 19.2262 33.6113 19.3144C33.8991 19.4906 34.1822 19.6903 34.4513 19.8853C34.5882 19.9781 35.0035 20.1881 35.0279 20.354L35.0288 20.3559Z" fill="#607B96"/>
</g>
<defs>
<clipPath id="clip0_2876_1066">
<rect width="30" height="30" fill="white" transform="translate(6 6)"/>
</clipPath>
</defs>
</svg>
