<svg width="35" height="35" viewBox="0 0 42 42" fill="none" xmlns="http://www.w3.org/2000/svg">
<rect width="42" height="42" fill="#011627"/>
<g clip-path="url(#clip0_2894_1146)">
<mask id="mask0_2894_1146" style="mask-type:luminance" maskUnits="userSpaceOnUse" x="6" y="6" width="30" height="30">
<path d="M6 6H36V36H6V6Z" fill="white"/>
</mask>
<g mask="url(#mask0_2894_1146)">
<path d="M20.0175 6.00766C19.9525 6.01391 19.7475 6.03516 19.5625 6.04891C15.3025 6.43391 11.3125 8.73266 8.7825 12.2664C7.38538 14.2061 6.47715 16.4543 6.135 18.8202C6.015 19.6452 6 19.8877 6 21.0052C6 22.1227 6.015 22.3664 6.135 23.1902C6.95 28.8239 10.96 33.5564 16.3963 35.3102C17.37 35.6239 18.3963 35.8377 19.5625 35.9677C20.0175 36.0177 21.9825 36.0177 22.4375 35.9677C24.4512 35.7439 26.1587 35.2452 27.8412 34.3864C28.1 34.2552 28.15 34.2189 28.115 34.1902C27.292 33.1048 26.4774 32.0131 25.6713 30.9152L23.2725 27.6739L20.2675 23.2252C19.2676 21.7372 18.2585 20.2555 17.24 18.7802C17.2287 18.7764 17.2175 20.7527 17.2112 23.1677C17.2025 27.3927 17.1987 27.5627 17.1462 27.6627C17.095 27.7794 17.0037 27.8738 16.8888 27.9289C16.795 27.9764 16.7137 27.9852 16.27 27.9852H15.7625L15.6275 27.9002C15.544 27.8474 15.4762 27.7731 15.4313 27.6852L15.3687 27.5539L15.375 21.6739L15.3837 15.7914L15.475 15.6764C15.5364 15.6045 15.6101 15.544 15.6925 15.4977C15.8125 15.4389 15.8587 15.4339 16.3675 15.4339C16.965 15.4339 17.065 15.4564 17.22 15.6264C17.2637 15.6739 18.8913 18.1264 20.8388 21.0789L26.7562 30.0439L29.1312 33.6414L29.2525 33.5627C30.3955 32.8028 31.4318 31.8935 32.3337 30.8589C34.224 28.6955 35.45 26.0328 35.865 23.1902C35.985 22.3652 36 22.1227 36 21.0052C36 19.8877 35.985 19.6452 35.865 18.8202C35.05 13.1877 31.04 8.45391 25.6037 6.70016C24.5877 6.37712 23.5415 6.15808 22.4813 6.04641C22.1988 6.01641 20.2613 5.98391 20.0188 6.00891M26.16 15.0839C26.2297 15.119 26.2918 15.1676 26.3426 15.2268C26.3935 15.286 26.4321 15.3547 26.4562 15.4289C26.4787 15.5039 26.485 17.1352 26.4787 20.8102L26.47 26.0827L25.5413 24.6577L24.6088 23.2327V19.4002C24.6088 16.9214 24.62 15.5289 24.6375 15.4614C24.6583 15.3833 24.6947 15.3103 24.7446 15.2467C24.7944 15.1831 24.8567 15.1303 24.9275 15.0914C25.0488 15.0289 25.0925 15.0239 25.5525 15.0239C25.9863 15.0239 26.0625 15.0302 26.16 15.0827" fill="#607B96"/>
</g>
</g>
<defs>
<clipPath id="clip0_2894_1146">
<rect width="30" height="30" fill="white" transform="translate(6 6)"/>
</clipPath>
</defs>
</svg>
