<svg width="35" height="35" viewBox="0 0 42 42" fill="none" xmlns="http://www.w3.org/2000/svg">
<rect width="42" height="42" fill="#011627"/>
<g clip-path="url(#clip0_2886_26)">
<path d="M31.1813 13.6213L22.0741 8.15917C21.7469 7.97268 21.3769 7.8746 21.0003 7.8746C20.6238 7.8746 20.2537 7.97268 19.9266 8.15917L10.8188 13.6207C10.4906 13.8218 10.2198 14.1042 10.0325 14.4406C9.84533 14.7769 9.74802 15.1559 9.75003 15.5408V26.4492C9.74806 26.8344 9.84537 27.2136 10.0326 27.5502C10.2198 27.8868 10.4905 28.1695 10.8188 28.3711L13.2071 29.7973L13.2205 29.8049C14.4264 30.4219 14.8881 30.4219 15.4231 30.4219C17.3063 30.4219 18.4764 29.2031 18.4764 27.2408V16.6641C18.4775 16.532 18.4262 16.4049 18.3337 16.3107C18.2412 16.2164 18.1151 16.1627 17.983 16.1613H16.6717C16.5397 16.1627 16.4136 16.2164 16.3211 16.3107C16.2286 16.4049 16.1773 16.532 16.1784 16.6641V27.2408C16.1831 27.3922 16.1487 27.5423 16.0784 27.6765C16.008 27.8107 15.9042 27.9244 15.777 28.0066C15.4313 28.2176 14.9291 28.173 14.3625 27.8807L12.0739 26.5031C12.0651 26.4971 12.0579 26.4891 12.053 26.4797C12.0481 26.4703 12.0456 26.4598 12.0457 26.4492V15.6949C12.0461 15.6826 12.0494 15.6705 12.0555 15.6597C12.0615 15.6488 12.07 15.6396 12.0803 15.6328L20.9772 10.1836C20.9838 10.1803 20.9911 10.1786 20.9986 10.1786C21.006 10.1786 21.0133 10.1803 21.02 10.1836L29.9221 15.6328C29.9322 15.6402 29.9404 15.6499 29.946 15.6611C29.9517 15.6723 29.9545 15.6847 29.9543 15.6973V26.4492C29.9545 26.4603 29.9523 26.4713 29.9477 26.4815C29.9432 26.4916 29.9364 26.5006 29.928 26.5078L21.0182 31.8193C21.003 31.8246 20.9865 31.8246 20.9713 31.8193L18.6961 30.4682C18.6286 30.424 18.5506 30.3985 18.47 30.3943C18.3894 30.3901 18.3091 30.4073 18.2373 30.4441L18.2174 30.4559C17.5893 30.8279 17.4205 30.9246 16.8381 31.1367C16.7432 31.1713 16.52 31.2539 16.5006 31.4748C16.4813 31.6957 16.6934 31.8527 16.8821 31.9623L19.9231 33.8297C20.2471 34.0238 20.6176 34.1264 20.9953 34.1268H21.0293C21.3976 34.121 21.7579 34.0185 22.0741 33.8297L31.1813 28.3728C31.5093 28.1707 31.7799 27.8876 31.9671 27.5507C32.1543 27.2139 32.2517 26.8346 32.25 26.4492V15.5408C32.2519 15.156 32.1545 14.7772 31.9673 14.4409C31.7801 14.1047 31.5094 13.8224 31.1813 13.6213Z" fill="#607B96"/>
<path d="M24.0399 24.6357C21.855 24.6357 21.3891 24.0252 21.2509 23.0397C21.2353 22.9223 21.1781 22.8145 21.0897 22.7357C21.0013 22.657 20.8876 22.6127 20.7692 22.6107H19.6091C19.4783 22.6135 19.354 22.668 19.2633 22.7622C19.1726 22.8564 19.1229 22.9827 19.1251 23.1135C19.1251 23.9678 19.4251 26.7563 24.0423 26.7563C25.4708 26.7563 26.6591 26.4223 27.4776 25.79C28.2962 25.1578 28.7344 24.2379 28.7344 23.1416C28.7344 20.9414 27.2989 20.3391 24.4717 19.9453C21.5977 19.5457 21.5977 19.3424 21.5977 18.8971C21.5977 18.5766 21.5977 17.826 23.6755 17.826C25.1538 17.826 25.9454 18.0129 26.1985 18.9979C26.2209 19.1071 26.28 19.2053 26.3658 19.2764C26.4517 19.3475 26.5593 19.3871 26.6708 19.3887H27.835C27.9036 19.388 27.9713 19.3727 28.0336 19.3438C28.0958 19.3149 28.1512 19.2731 28.196 19.2211C28.2855 19.1166 28.3302 18.981 28.3202 18.8438C28.1696 16.7607 26.6468 15.7043 23.6772 15.7043C20.9784 15.7043 19.3676 16.9201 19.3676 18.9563C19.3676 21.1887 21.037 21.8197 23.5448 22.0811C26.4745 22.384 26.4745 22.8258 26.4745 23.216C26.4762 23.8242 26.2237 24.6357 24.0399 24.6357Z" fill="#607B96"/>
</g>
<defs>
<clipPath id="clip0_2886_26">
<rect width="30" height="30" fill="white" transform="translate(6 6)"/>
</clipPath>
</defs>
</svg>
