<svg width="20" height="21" viewBox="0 0 20 26" fill="none" xmlns="http://www.w3.org/2000/svg">
    <path fill-rule="evenodd" clip-rule="evenodd" d="M11.9825 0.5C12.5694 0.500143 13.1376 0.706793 13.5875 1.08375L13.75 1.2325L19.2675 6.75C19.6825 7.16503 19.9383 7.71285 19.99 8.2975L20 8.5175V23C20.0002 23.6307 19.762 24.2382 19.3331 24.7007C18.9043 25.1632 18.3164 25.4464 17.6875 25.4938L17.5 25.5H2.5C1.86928 25.5002 1.26179 25.262 0.799315 24.8331C0.336838 24.4043 0.0535543 23.8164 0.00625027 23.1875L1.25335e-07 23V3C-0.000199474 2.36928 0.238008 1.76179 0.666871 1.29931C1.09573 0.836838 1.68356 0.553554 2.3125 0.50625L2.5 0.5H11.9825ZM10 3H2.5V23H17.5V10.5H11.875C11.4089 10.5 10.9595 10.3264 10.6145 10.013C10.2694 9.6996 10.0535 9.26895 10.0087 8.805L10 8.625V3ZM11.235 12.81C11.5342 14.7138 12.5298 16.4387 14.0287 17.65C15.1375 18.5463 14.1237 20.3012 12.7937 19.79C10.9956 19.0976 9.00441 19.0976 7.20625 19.79C5.875 20.3025 4.86125 18.5463 5.97 17.65C7.46891 16.4387 8.46453 14.7138 8.76375 12.81C8.98625 11.4012 11.0137 11.4025 11.235 12.81ZM9.9975 15.69L9.1375 17.185H10.8625L9.9975 15.69ZM12.5 3.5175V8H16.9825L12.5 3.5175Z" fill="#607B96"/>
    </svg>
    