<svg width="35" height="35" viewBox="0 0 42 42" fill="none" xmlns="http://www.w3.org/2000/svg">
<rect width="42" height="42" fill="#011627"/>
<path d="M13.9462 17.25C10.65 18.1 8.5 19.5563 8.5 21.2188C8.5 23.8525 14.0063 26 20.8125 26C21.7375 26 22.3875 25.9512 23.25 25.8787" stroke="#607B96" stroke-width="2.5" stroke-linecap="round" stroke-linejoin="round"/>
<path d="M18.2961 25.875C17.7799 25.13 17.2886 24.4588 16.8211 23.625C13.3824 17.5 12.4611 11.4125 14.7836 10.0338C16.2211 9.1625 18.5924 10.35 21.0011 12.8513" stroke="#607B96" stroke-width="2.5" stroke-linecap="round" stroke-linejoin="round"/>
<path d="M14.0362 25.2338C13.1587 28.5938 13.3362 31.1287 14.7362 31.9775C16.9649 33.3275 21.4699 29.53 24.7899 23.4725C25.2399 22.635 25.6432 21.8108 25.9999 21" stroke="#607B96" stroke-width="2.5" stroke-linecap="round" stroke-linejoin="round"/>
<path d="M21 29.15C23.41 31.65 25.7713 32.8375 27.2225 31.9663C29.535 30.5888 28.6238 24.5012 25.1813 18.375C24.7013 17.5287 24.21 16.87 23.7062 16.125" stroke="#607B96" stroke-width="2.5" stroke-linecap="round" stroke-linejoin="round"/>
<path d="M28.075 24.75C31.34 23.8913 33.5 22.4375 33.5 20.78C33.5 18.1425 27.99 16 21.1937 16C20.26 16 19.6113 16.0362 18.75 16.1087" stroke="#607B96" stroke-width="2.5" stroke-linecap="round" stroke-linejoin="round"/>
<path d="M16 21C16.3562 20.175 16.7588 19.365 17.21 18.5275C20.5188 12.4725 25.0262 8.665 27.2675 10.0263C28.655 10.875 28.845 13.4088 27.9675 16.7675M21.325 21.0188H21.3125C21.3 21.1813 21.1625 21.3188 20.9875 21.3188C20.9038 21.3146 20.8248 21.2787 20.7668 21.2183C20.7087 21.1579 20.6759 21.0776 20.675 20.9938C20.675 20.8188 20.8125 20.6813 20.975 20.6813H20.9625C21.125 20.6688 21.275 20.8188 21.275 20.9813" stroke="#607B96" stroke-width="2.5" stroke-linecap="round" stroke-linejoin="round"/>
</svg>
