<svg width="42" height="42" viewBox="0 0 42 42" fill="none" xmlns="http://www.w3.org/2000/svg">
<rect width="42" height="42" fill="#011627"/>
<g clip-path="url(#clip0_2876_1079)">
<path d="M21 22.5C20.6022 22.5 20.2206 22.342 19.9393 22.0607C19.658 21.7794 19.5 21.3978 19.5 21C19.5 20.6022 19.658 20.2206 19.9393 19.9393C20.2206 19.658 20.6022 19.5 21 19.5C21.3978 19.5 21.7794 19.658 22.0607 19.9393C22.342 20.2206 22.5 20.6022 22.5 21C22.5 21.3978 22.342 21.7794 22.0607 22.0607C21.7794 22.342 21.3978 22.5 21 22.5ZM20.472 25.494C20.647 25.704 20.823 25.908 21 26.103C21.177 25.908 21.353 25.705 21.528 25.494C21.176 25.5015 20.824 25.5015 20.472 25.494ZM18.477 25.369C17.7091 25.2891 16.9462 25.1662 16.192 25.001C16.117 25.351 16.06 25.691 16.022 26.017C15.832 27.6 16.097 28.562 16.5 28.794C16.903 29.027 17.868 28.775 19.145 27.82C19.408 27.623 19.673 27.404 19.939 27.165C19.4185 26.5941 18.9304 25.9945 18.477 25.369ZM25.808 25.001C25.091 25.161 24.325 25.285 23.523 25.369C23.0696 25.9945 22.5815 26.5941 22.061 27.165C22.327 27.405 22.592 27.623 22.855 27.82C24.132 28.775 25.097 29.027 25.5 28.794C25.903 28.562 26.167 27.6 25.979 26.017C25.9377 25.6759 25.881 25.3369 25.809 25.001H25.808ZM27.258 24.614C27.835 27.253 27.532 29.354 26.25 30.094C24.968 30.834 22.997 30.046 21 28.227C19.003 30.046 17.032 30.833 15.75 30.093C14.468 29.353 14.165 27.253 14.741 24.613C12.167 23.794 10.5 22.48 10.5 21C10.5 19.52 12.167 18.207 14.741 17.386C14.165 14.747 14.468 12.646 15.75 11.906C17.032 11.166 19.003 11.954 21 13.773C22.997 11.954 24.968 11.167 26.25 11.907C27.532 12.647 27.835 14.747 27.259 17.387C29.833 18.206 31.5 19.52 31.5 21C31.5 22.48 29.833 23.793 27.259 24.614H27.258ZM19.938 14.835C19.6837 14.6048 19.4191 14.3862 19.145 14.18C17.868 13.225 16.903 12.973 16.5 13.206C16.097 13.438 15.833 14.4 16.021 15.983C16.061 16.31 16.117 16.649 16.191 16.999C16.9455 16.8337 17.7087 16.7109 18.477 16.631C18.952 15.978 19.442 15.377 19.939 14.835H19.938ZM23.523 16.631C24.325 16.715 25.091 16.84 25.808 16.999C25.883 16.649 25.94 16.309 25.978 15.983C26.168 14.4 25.903 13.438 25.5 13.206C25.097 12.973 24.132 13.225 22.855 14.18C22.5806 14.3862 22.3156 14.6048 22.061 14.835C22.558 15.377 23.048 15.978 23.523 16.631ZM21.528 16.506C21.353 16.296 21.177 16.092 21 15.897C20.823 16.092 20.647 16.295 20.472 16.506C20.824 16.4985 21.176 16.4985 21.528 16.506ZM17.372 23.704C17.1896 23.4031 17.0135 23.0984 16.844 22.79C16.749 23.047 16.661 23.3 16.581 23.551C16.838 23.607 17.102 23.658 17.371 23.704H17.372ZM19.304 23.938C20.4331 24.0219 21.5669 24.0219 22.696 23.938C23.3332 23.002 23.9001 22.0199 24.392 21C23.9001 19.9801 23.3332 18.998 22.696 18.062C21.5669 17.9781 20.4331 17.9781 19.304 18.062C18.6668 18.998 18.0999 19.9801 17.608 21C18.0999 22.0199 18.6668 23.002 19.304 23.938ZM25.156 19.21C25.251 18.953 25.339 18.7 25.419 18.449C25.1568 18.3921 24.8934 18.3411 24.629 18.296C24.8111 18.5969 24.9868 18.9016 25.156 19.21ZM15.13 18.837C14.79 18.947 14.468 19.067 14.166 19.197C12.701 19.825 12 20.535 12 21C12 21.465 12.7 22.175 14.166 22.803C14.468 22.933 14.79 23.053 15.13 23.163C15.352 22.463 15.627 21.737 15.955 21C15.6398 20.295 15.3644 19.5728 15.13 18.837ZM16.58 18.449C16.661 18.699 16.749 18.953 16.844 19.209C17.0135 18.901 17.1896 18.5966 17.372 18.296C17.102 18.342 16.838 18.393 16.581 18.449H16.58ZM26.87 23.163C27.21 23.053 27.532 22.933 27.834 22.803C29.299 22.175 30 21.465 30 21C30 20.535 29.3 19.825 27.834 19.197C27.5183 19.0625 27.1966 18.9424 26.87 18.837C26.648 19.537 26.373 20.263 26.045 21C26.373 21.737 26.648 22.462 26.87 23.163ZM25.42 23.551C25.339 23.301 25.251 23.047 25.156 22.791C24.9865 23.099 24.8104 23.4034 24.628 23.704C24.898 23.658 25.162 23.607 25.419 23.551H25.42Z" fill="#607B96"/>
</g>
<defs>
<clipPath id="clip0_2876_1079">
<rect width="24" height="24" fill="white" transform="translate(9 9)"/>
</clipPath>
</defs>
</svg>
