<svg width="35" height="35" viewBox="0 0 42 42" fill="none" xmlns="http://www.w3.org/2000/svg">
<rect width="42" height="42" fill="#011627"/>
<g clip-path="url(#clip0_2876_1026)">
<path d="M21.001 12.0005C17.0009 12.0005 14.5018 13.9997 13.501 17.9998C15.0005 16.0003 16.7511 15.2505 18.7505 15.7505C19.8921 16.035 20.708 16.8628 21.6115 17.7801C23.082 19.2724 24.784 21 28.501 21C32.5008 21 35.0002 19.0005 36.001 14.9995C34.501 17 32.7511 17.7501 30.7512 17.25C29.6098 16.9652 28.7949 16.1376 27.8902 15.2203C26.4207 13.728 24.7191 12.0005 21.001 12.0005ZM13.501 21C9.50113 21 7.00176 22.9994 6.00098 27.0005C7.50082 25 9.25066 24.2498 11.2505 24.75C12.3921 25.0348 13.208 25.8623 14.1115 26.7797C15.582 28.2719 17.284 29.9995 21.001 29.9995C25.0008 29.9995 27.5002 28.0003 28.501 24.0002C27.001 25.9998 25.2511 26.7495 23.2512 26.2495C22.1098 25.965 21.2949 25.1372 20.3902 24.2198C18.9207 22.7276 17.2191 21 13.501 21Z" fill="#607B96"/>
</g>
<defs>
<clipPath id="clip0_2876_1026">
<rect width="30" height="30" fill="white" transform="translate(6 6)"/>
</clipPath>
</defs>
</svg>
