<svg width="35" height="35" viewBox="0 0 42 42" fill="none" xmlns="http://www.w3.org/2000/svg">
<rect width="42" height="42" fill="#011627"/>
<g clip-path="url(#clip0_2876_1082)">
<path fill-rule="evenodd" clip-rule="evenodd" d="M6 6H36V36H6V6ZM26 18C24.9391 18 23.9217 18.4214 23.1716 19.1716C22.4214 19.9217 22 20.9391 22 22C22 23.0609 22.4214 24.0783 23.1716 24.8284C23.9217 25.5786 24.9391 26 26 26H28C28.5304 26 29.0391 26.2107 29.4142 26.5858C29.7893 26.9609 30 27.4696 30 28C30 28.5304 29.7893 29.0391 29.4142 29.4142C29.0391 29.7893 28.5304 30 28 30H26C25.4696 30 24.9609 29.7893 24.5858 29.4142C24.2107 29.0391 24 28.5304 24 28H22C22 29.0609 22.4214 30.0783 23.1716 30.8284C23.9217 31.5786 24.9391 32 26 32H28C29.0609 32 30.0783 31.5786 30.8284 30.8284C31.5786 30.0783 32 29.0609 32 28C32 26.9391 31.5786 25.9217 30.8284 25.1716C30.0783 24.4214 29.0609 24 28 24H26C25.4696 24 24.9609 23.7893 24.5858 23.4142C24.2107 23.0391 24 22.5304 24 22C24 21.4696 24.2107 20.9609 24.5858 20.5858C24.9609 20.2107 25.4696 20 26 20H28.334C29.254 20 30 20.746 30 21.666V22H32V21.666C32 19.642 30.36 18 28.334 18H26ZM12 18H22V20H18V32H16V20H12V18Z" fill="#607B96"/>
</g>
<defs>
<clipPath id="clip0_2876_1082">
<rect width="30" height="30" fill="white" transform="translate(6 6)"/>
</clipPath>
</defs>
</svg>
