<svg width="42" height="42" viewBox="0 0 42 42" fill="none" xmlns="http://www.w3.org/2000/svg">
<rect width="42" height="42" fill="#011627"/>
<g clip-path="url(#clip0_2876_1084)">
<g clip-path="url(#clip1_2876_1084)">
<path d="M21 10.5C15.475 10.5 11 14.975 11 20.5C10.9989 22.5993 11.6588 24.6456 12.8862 26.3487C14.1136 28.0517 15.8461 29.3251 17.838 29.988C18.338 30.075 18.525 29.775 18.525 29.512C18.525 29.275 18.512 28.488 18.512 27.65C16 28.113 15.35 27.038 15.15 26.475C15.037 26.187 14.55 25.3 14.125 25.062C13.775 24.875 13.275 24.412 14.112 24.4C14.9 24.387 15.462 25.125 15.65 25.425C16.55 26.937 17.988 26.512 18.562 26.25C18.65 25.6 18.912 25.163 19.2 24.913C16.975 24.663 14.65 23.8 14.65 19.975C14.65 18.887 15.037 17.988 15.675 17.287C15.575 17.037 15.225 16.012 15.775 14.637C15.775 14.637 16.612 14.375 18.525 15.663C19.3391 15.4371 20.1802 15.3233 21.025 15.325C21.875 15.325 22.725 15.437 23.525 15.662C25.437 14.362 26.275 14.638 26.275 14.638C26.825 16.013 26.475 17.038 26.375 17.288C27.012 17.988 27.4 18.875 27.4 19.975C27.4 23.813 25.063 24.663 22.838 24.913C23.2 25.225 23.513 25.825 23.513 26.763C23.513 28.1 23.5 29.175 23.5 29.513C23.5 29.775 23.688 30.087 24.188 29.987C26.173 29.3168 27.8979 28.041 29.1199 26.3392C30.3419 24.6373 30.9994 22.5951 31 20.5C31 14.975 26.525 10.5 21 10.5Z" fill="#607B96"/>
</g>
</g>
<defs>
<clipPath id="clip0_2876_1084">
<rect width="24" height="24" fill="white" transform="translate(9 9)"/>
</clipPath>
<clipPath id="clip1_2876_1084">
<rect width="24" height="24" fill="white" transform="translate(9 8.5)"/>
</clipPath>
</defs>
</svg>
